Coordinates
version=1
nRows=13
nColumns=40
inDegrees=yes

Units are S.I. units (second, meters, Newtons, ...)
Angles are in degrees.

endheader
time	pelvis_tilt	pelvis_list	pelvis_rotation	pelvis_tx	pelvis_ty	pelvis_tz	hip_flexion_r	hip_adduction_r	hip_rotation_r	knee_angle_r	knee_angle_r_beta	ankle_angle_r	subtalar_angle_r	mtp_angle_r	hip_flexion_l	hip_adduction_l	hip_rotation_l	knee_angle_l	knee_angle_l_beta	ankle_angle_l	subtalar_angle_l	mtp_angle_l	lumbar_extension	lumbar_bending	lumbar_rotation	arm_flex_r	arm_add_r	arm_rot_r	elbow_flex_r	pro_sup_r	wrist_flex_r	wrist_dev_r	arm_flex_l	arm_add_l	arm_rot_l	elbow_flex_l	pro_sup_l	wrist_flex_l	wrist_dev_l
      3.57000000	      4.02943147	     -4.07186671	      2.90925546	      0.64920985	      0.90968421	      1.47229357	     -2.63965971	      6.13652243	    -23.37865423	    -16.97508320	     -0.29627109	      7.68555881	      9.99820942	     -5.06479607	     14.85173417	      7.86958579	      9.41263658	    -39.43406468	     -0.68825427	      8.48238331	      4.98257689	    -10.99739415	    -10.97951528	      6.66141495	      4.37616668	     14.51194414	    -12.94942991	     17.58870401	     18.28362527	     89.95437384	      0.00000000	      0.00000000	      4.67454655	      8.72204766	     -6.85084287	     25.04922934	     89.95437384	      0.00000000	      0.00000000
      3.58000000	      4.19850917	     -3.96824623	      2.73044285	      0.65533229	      0.90991473	      1.47257628	     -3.33902363	      6.02332479	    -23.43466558	    -16.86827786	     -0.29440699	      7.85132366	     10.36039830	     -5.23804745	     15.05376701	      7.59377248	      9.78507406	    -37.71952245	     -0.65832986	      8.15030151	      4.43500440	    -11.14075537	    -11.17884439	      6.50440404	      4.63124590	     14.82179417	    -13.01648211	     17.53148265	     18.59405381	     89.95437384	      0.00000000	      0.00000000	      4.27158372	      8.69927336	     -6.29354359	     25.63250544	     89.95437384	      0.00000000	      0.00000000
      3.59000000	      3.90653154	     -4.14348938	      2.65282021	      0.66096699	      0.90929765	      1.47283979	     -3.39391700	      6.20564658	    -23.51513693	    -16.90201170	     -0.29499575	      7.92484322	     10.21598200	     -5.21284826	     15.99993368	      7.56009861	      9.85420821	    -36.32866639	     -0.63405484	      7.97092382	      4.19641174	    -10.98076491	    -10.87391905	      6.66160085	      4.84590980	     15.04581608	    -13.13342131	     17.47901321	     18.95228346	     89.95437384	      0.00000000	      0.00000000	      3.98178957	      8.66236107	     -6.21853885	     25.93167039	     89.95437384	      0.00000000	      0.00000000
      3.60000000	      4.00122163	     -3.98828690	      2.51961420	      0.66677894	      0.90939114	      1.47290338	     -3.96344921	      6.00942240	    -23.46099092	    -16.85634103	     -0.29419865	      8.09837092	     10.65225390	     -5.40818212	     16.17956196	      7.16787313	     10.02477721	    -34.35570457	     -0.59962016	      6.91224502	      2.82579310	    -11.13463265	    -11.07477094	      6.45122822	      5.00589918	     15.34157620	    -13.20906711	     17.47836950	     19.38027506	     89.95437384	      0.00000000	      0.00000000	      3.60107689	      8.59772256	     -5.59884993	     26.48747174	     89.95437384	      0.00000000	      0.00000000
      3.61000000	      3.66308270	     -4.11038833	      2.42509118	      0.67230521	      0.90859262	      1.47308176	     -3.95968934	      6.14512896	    -23.27385245	    -16.91033860	     -0.29514109	      8.08913559	     10.65210687	     -5.42261687	     17.02661222	      7.02269787	      9.89692295	    -32.66227525	     -0.57006424	      6.15285822	      2.17155834	    -10.98922981	    -10.76410047	      6.53602285	      5.15437417	     15.52379394	    -13.30927753	     17.41969767	     19.86047036	     89.95437384	      0.00000000	      0.00000000	      3.24300807	      8.57568415	     -5.49316230	     26.79344777	     89.95437384	      0.00000000	      0.00000000
      3.62000000	      3.37703756	     -4.29675988	      2.36054587	      0.67808307	      0.90784407	      1.47314677	     -4.03391223	      6.32209343	    -23.23075198	    -16.95938995	     -0.29599719	      8.21035133	     10.60915932	     -5.43281380	     17.79972747	      6.97581353	      9.96303709	    -31.03364452	     -0.54163928	      5.35483701	      1.72496405	    -10.79404901	    -10.48220788	      6.71019304	      5.26730931	     15.71524045	    -13.35202651	     17.36382139	     20.19956940	     89.95437384	      0.00000000	      0.00000000	      2.88427004	      8.50628665	     -5.40532197	     27.01384537	     89.95437384	      0.00000000	      0.00000000
      3.63000000	      3.29385798	     -4.17083433	      2.27845783	      0.68363532	      0.90743334	      1.47296037	     -4.34006215	      6.13806464	    -23.06814400	    -17.00252874	     -0.29675011	      8.44458186	     10.78085422	     -5.53868518	     18.13880581	      6.61780875	     10.15517505	    -29.00411927	     -0.50621738	      3.45351014	      0.47759893	    -10.64258454	    -10.50478474	      6.54265740	      5.32244560	     15.94479706	    -13.39714886	     17.26693677	     20.64526222	     89.95437384	      0.00000000	      0.00000000	      2.68628084	      8.38582731	     -5.07236646	     27.04135653	     89.95437384	      0.00000000	      0.00000000
      3.64000000	      3.01847743	     -4.42409555	      2.16277251	      0.68933063	      0.90652750	      1.47309412	     -4.36997057	      6.37763356	    -22.94581758	    -17.13349748	     -0.29903594	      8.50304240	     10.82989925	     -5.56596834	     18.80129642	      6.66549343	     10.20706295	    -27.30538701	     -0.47656891	      2.62540842	     -0.00239562	    -10.46582040	    -10.27659143	      6.77100559	      5.43594587	     16.09917867	    -13.44076006	     17.18498948	     21.07061355	     89.95437384	      0.00000000	      0.00000000	      2.35769183	      8.28621942	     -4.97423357	     27.16380232	     89.95437384	      0.00000000	      0.00000000
      3.65000000	      2.75726332	     -4.58301581	      2.07465442	      0.69511611	      0.90564023	      1.47306827	     -4.45073103	      6.50133600	    -22.84295846	    -17.22013314	     -0.30054802	      8.61969658	     10.89667914	     -5.60260595	     19.39622525	      6.63279178	     10.41454789	    -25.59958698	     -0.44679708	      1.49265944	     -0.47206903	    -10.25987420	    -10.06854676	      6.90576999	      5.48318248	     16.22284821	    -13.45919465	     17.11420856	     21.49154782	     89.95437384	      0.00000000	      0.00000000	      2.08286962	      8.16424591	     -4.85164679	     27.11908218	     89.95437384	      0.00000000	      0.00000000
      3.66000000	      2.97265600	     -4.40038938	      1.78637400	      0.70131735	      0.90553404	      1.47321975	     -5.11396188	      6.18092609	    -22.85022517	    -17.35269780	     -0.30286171	      8.83386162	     11.53642189	     -5.89422111	     19.07808807	      6.42727677	     11.43264456	    -23.40737537	     -0.40853577	     -0.33811077	     -1.77792059	    -10.31036109	    -10.41812413	      6.63155289	      5.74037857	     16.32931198	    -13.37507984	     16.70404191	     21.94866236	     89.95437384	      0.00000000	      0.00000000	      1.95425439	      7.97961123	     -4.42436996	     26.87897468	     89.95437384	      0.00000000	      0.00000000
      3.67000000	      2.69884861	     -4.60162269	      1.69268026	      0.70715162	      0.90449431	      1.47313345	     -5.21294365	      6.36044698	    -22.72437545	    -17.36632208	     -0.30309950	      8.84857127	     11.68233093	     -5.99959721	     19.64248585	      6.45265139	     11.64154132	    -21.82491274	     -0.38091659	     -1.26003548	     -2.01723093	    -10.17077553	    -10.20099809	      6.80575400	      5.77317808	     16.39501185	    -13.37049414	     16.59797494	     22.35125817	     89.95437384	      0.00000000	      0.00000000	      1.75545793	      7.82963913	     -4.38128545	     26.61125608	     89.95437384	      0.00000000	      0.00000000
      3.68000000	      2.49668887	     -4.85717251	      1.66913217	      0.71290272	      0.90335407	      1.47321984	     -5.37761405	      6.60838983	    -22.85395974	    -17.40357016	     -0.30374960	      8.97383414	     11.61303301	     -6.00337835	     20.35325772	      6.63454750	     12.12795835	    -20.83203972	     -0.36358768	     -1.26950041	     -1.95927560	    -10.06353003	    -10.10286782	      7.01114244	      5.60941352	     16.60156245	    -13.23981673	     16.57463444	     22.66323320	     89.95437384	      0.00000000	      0.00000000	      1.51312819	      7.78942634	     -4.42870531	     26.39450494	     89.95437384	      0.00000000	      0.00000000
      3.69000000	      2.25670397	     -5.15825479	      1.63693261	      0.71916446	      0.90220982	      1.47286238	     -5.54086265	      6.87973063	    -22.87741826	    -17.44887603	     -0.30454034	      9.12637964	     11.64774726	     -6.03550711	     20.86870226	      6.79046706	     12.62425110	    -19.54674900	     -0.34115513	     -1.41840011	     -1.98192374	     -9.96243414	     -9.84860723	      7.33855233	      5.49566007	     16.65779238	    -13.17572500	     16.55053991	     22.90650625	     89.95437384	      0.00000000	      0.00000000	      1.23718272	      7.61361792	     -4.48678842	     26.05043625	     89.95437384	      0.00000000	      0.00000000
